<?xml version="1.0" encoding="UTF-8"?><svg id="Layer_1" xmlns="http://www.w3.org/2000/svg" width="2501.82" height="2501.82" xmlns:xlink="http://www.w3.org/1999/xlink" viewBox="0 0 2501.82 2501.82"><defs><linearGradient id="linear-gradient" x1="1990.34" y1="1019.17" x2="2125.29" y2="1248.52" gradientUnits="userSpaceOnUse"><stop offset=".11" stop-color="#4489f6"/><stop offset=".3" stop-color="#4280ea"/><stop offset=".59" stop-color="#4079e0"/><stop offset=".94" stop-color="#4077dd"/></linearGradient><linearGradient id="linear-gradient-2" x1="1893.5" y1="1932.43" x2="1777.35" y2="1515.11" gradientUnits="userSpaceOnUse"><stop offset=".15" stop-color="#4499fb"/><stop offset=".27" stop-color="#4391f3"/><stop offset=".4" stop-color="#4080e1"/><stop offset=".57" stop-color="#3d70d1"/><stop offset=".76" stop-color="#3b67c7"/><stop offset="1" stop-color="#3b64c4"/></linearGradient><linearGradient id="linear-gradient-3" x1="1168.13" y1="1118.25" x2="1938.44" y2="1524.81" gradientUnits="userSpaceOnUse"><stop offset=".12" stop-color="#5fcafe"/><stop offset=".32" stop-color="#44a8ff"/><stop offset=".6" stop-color="#4489f6"/><stop offset=".76" stop-color="#3f76dd"/><stop offset=".94" stop-color="#3b64c4"/></linearGradient><linearGradient id="linear-gradient-4" x1="1152.72" y1="1146.68" x2="2244.73" y2="1723.02" gradientUnits="userSpaceOnUse"><stop offset=".21" stop-color="#5fcafe"/><stop offset=".6" stop-color="#5fcafe"/><stop offset=".95" stop-color="#64bee9"/></linearGradient><linearGradient id="linear-gradient-5" x1="1952.98" y1="1361.12" x2="2432.44" y2="1642.65" gradientUnits="userSpaceOnUse"><stop offset=".15" stop-color="#44a8ff"/><stop offset=".37" stop-color="#59c3fd"/><stop offset=".65" stop-color="#70e0fc"/><stop offset=".81" stop-color="#79ebfc"/></linearGradient><linearGradient id="linear-gradient-6" x1="789.29" y1="1809.87" x2="651.21" y2="1313.75" gradientUnits="userSpaceOnUse"><stop offset=".33" stop-color="#5fcafe"/><stop offset=".46" stop-color="#65d1fd"/><stop offset=".94" stop-color="#79ebfc"/></linearGradient><linearGradient id="linear-gradient-7" x1="682.99" y1="1557.55" x2="670.97" y2="1062.34" gradientUnits="userSpaceOnUse"><stop offset=".15" stop-color="#3b64c4"/><stop offset="1" stop-color="#4499fb"/></linearGradient><linearGradient id="linear-gradient-8" x1="1969.55" y1="779.18" x2="2236.55" y2="779.18" gradientUnits="userSpaceOnUse"><stop offset="0" stop-color="#4489f6"/><stop offset=".57" stop-color="#54b0fa"/><stop offset="1" stop-color="#5fcafe"/></linearGradient><linearGradient id="linear-gradient-9" x1="2022.75" y1="861.89" x2="2236.46" y2="861.89" gradientUnits="userSpaceOnUse"><stop offset=".25" stop-color="#4077dd"/><stop offset=".43" stop-color="#417fe8"/><stop offset=".68" stop-color="#4386f2"/><stop offset="1" stop-color="#4489f6"/></linearGradient></defs><path d="M2236.55,1118.86c-.12.23-.24.47-.37.71-15.6,30.31-45.43,117.43-151.46,161.67-38.87,16.22-78.16,28.03-114.27,45.22v-191.99c0-73.73,59.77-133.5,133.5-133.5,68.45,0,124.87,51.51,132.6,117.89Z" style="fill:url(#linear-gradient);"/><path d="M1922.83,1395.06v308.63c0,73.73-59.77,133.5-133.5,133.5-58.78,0-108.69-37.99-126.51-90.77,107.92-99.96,146.62-216.28,224.25-311.95,3.63-4.47,7.35-8.9,11.15-13.28,7.78-8.93,15.94-17.65,24.61-26.13Z" style="fill:url(#linear-gradient-2);"/><path d="M1789.34,1000.97c-62.09,0-114.29,42.4-129.21,99.82-11.36-10.29-23.29-19.86-35.71-28.65-60.62-42.83-130.91-65.48-203.27-65.48-53.6,0-105.42,12.17-154.04,36.15-45.31,22.36-85.61,53.93-119.82,93.83-48.52,56.61-81.22,126.1-95.47,201.22,0,0,.03.1.09.3.02.06.04.14.06.22.05.16.1.37.17.6.03.12.07.25.11.39,2.53,8.27,17.16,48.62,41.83,94.58,32.42,60.44,119.77,227.38,311.52,241.42,6.18.45,12.48.74,18.89.87,101.24,1.99,216.84-87.83,267.71-136.5,34.17-32.69,176.09-163.32,230.64-188.96v-216.31c0-73.73-59.77-133.5-133.5-133.5ZM1631.09,1518.32c-42.95,63.44-111.5,86.04-161.33,86.04-59.9,0-103.08-28.05-123.51-44.76-43.37-35.51-68.25-86.3-68.25-139.34s24.88-103.82,68.25-139.33c20.43-16.72,63.61-44.76,123.51-44.76,64.06,0,126.14,33.34,161.98,87.01,19.47,29.15,29.76,62.73,29.76,97.08s-10.52,68.67-30.41,98.06Z" style="fill:url(#linear-gradient-3);"/><path d="M2237.45,1134.47v569.22c0,73.73-59.76,133.5-133.5,133.5s-133.5-59.77-133.5-133.5v-348.52c-6.65,4.79-12.46,9.06-15.94,11.83-11.29,9.01-21.81,18.38-31.67,28.06-8.68,8.48-16.83,17.2-24.61,26.13-3.8,4.38-7.53,8.81-11.16,13.28-77.62,95.67-116.32,211.99-224.25,311.95-.41.38-.83.77-1.27,1.16-26.36,24.09-55.57,44.08-86.8,59.41l-.06.03c-55.4,26.33-116.59,38.68-177.45,35.04-.36-.01-.72-.03-1.08-.07-44.73-3.2-88.03-15.02-129.05-35.25-43.88-21.66-83.09-51.97-116.59-90.11-.17-.15-.29-.31-.41-.46-1.93-2.25-3.83-4.53-5.72-6.85-16.44-20.17-30.43-40.46-42.3-60.61-38-66.39-58.39-143.63-58.39-223.94,0-29.51,2.76-58.61,8.12-86.91,0,0,.03.1.09.3.02.06.04.14.06.22.04.16.1.37.17.6.03.12.07.25.11.39,2.53,8.27,17.16,48.62,41.83,94.58,32.42,60.44,119.77,227.38,311.52,241.42,6.18.45,12.48.74,18.89.87,101.24,1.99,214.63-85.68,267.71-136.5,42.88-41.05,169.6-157.74,230.64-188.96,15.72-8.04,31.36-16.59,47.61-24.32,36.12-17.19,75.41-29,114.28-45.22,106.03-44.24,135.86-131.36,151.46-161.67.13-.24.25-.48.36-.71.04.39.1.79.14,1.18.51,4.74.76,9.56.76,14.43Z" style="fill:url(#linear-gradient-4);"/><path d="M2237.45,1134.47v569.22c0,73.73-59.76,133.5-133.5,133.5s-133.5-59.77-133.5-133.5v-348.52s38.47-38.49,105.52-70.35c0,0,.02-.01.03-.01,2.91-1.17,5.82-2.36,8.73-3.57,106.03-44.24,135.86-131.36,151.46-161.67.13-.24.25-.48.36-.71.04.39.1.79.14,1.18.51,4.74.76,9.56.76,14.43Z" style="fill:url(#linear-gradient-5);"/><path d="M971.93,1391.04l-178.99,370.73-.03.06c-.7,1.45-1.43,2.89-2.18,4.31-.02.03-.03.06-.05.1-1.49,2.82-3.09,5.59-4.78,8.31-.06.08-.11.17-.17.25-.81,1.3-1.65,2.59-2.51,3.86l-.03.06c-.85,1.25-1.73,2.49-2.62,3.72-.12.17-.25.34-.37.5-.8,1.09-1.61,2.16-2.44,3.22-.11.13-.21.26-.31.4-.9,1.13-1.81,2.25-2.74,3.35-.17.2-.35.4-.52.6-.79.93-1.6,1.85-2.42,2.76-.18.2-.37.41-.56.62-.95,1.04-1.92,2.07-2.9,3.08-.17.16-.33.33-.5.49-.84.86-1.69,1.7-2.56,2.53-.25.24-.49.47-.74.71-1.02.96-2.05,1.92-3.1,2.85-.05.04-.09.08-.14.12-.99.88-2,1.74-3.02,2.59-.3.25-.6.49-.9.74-.86.71-1.73,1.4-2.62,2.08-.24.19-.47.38-.71.57-1.06.81-2.13,1.6-3.22,2.38-.36.26-.72.51-1.08.76-.76.54-1.53,1.07-2.31,1.59-.43.3-.87.59-1.3.87-.85.56-1.7,1.1-2.56,1.64-.56.35-1.13.7-1.7,1.04-.81.49-1.61.97-2.43,1.44-.54.31-1.09.62-1.64.92-.65.36-1.31.72-1.97,1.07-.54.3-1.09.59-1.64.88-1.02.52-2.05,1.04-3.08,1.54-.53.26-1.06.5-1.58.75-.91.43-1.81.85-2.72,1.25-.39.17-.78.33-1.17.5-1.01.44-2.03.87-3.06,1.28-.26.11-.53.21-.79.32-1.27.5-2.55.99-3.82,1.45-.04.01-.07.02-.1.03-5.9,2.13-11.87,3.82-17.88,5.07-6,1.26-12.04,2.09-18.07,2.5-1.48.1-2.96.18-4.43.23-.1.01-.19.01-.29.01-1.45.05-2.91.08-4.36.08h-.19c-1.46,0-2.91-.03-4.37-.08-.09,0-.19,0-.28-.01-13.51-.47-27.11-3.01-40.35-7.78-.07-.03-.14-.06-.21-.08-1.23-.45-2.46-.91-3.68-1.39-.31-.13-.62-.25-.93-.37-.96-.39-1.91-.79-2.87-1.21-.45-.19-.9-.38-1.34-.57-.79-.36-1.58-.72-2.36-1.09-.82-.38-1.63-.76-2.44-1.16-.82-.41-1.65-.82-2.46-1.24-.62-.32-1.23-.64-1.84-.97-.58-.31-1.16-.63-1.73-.95-.61-.34-1.22-.68-1.82-1.02-.68-.39-1.34-.79-2.01-1.19-.79-.47-1.57-.95-2.34-1.44-.74-.46-1.47-.92-2.19-1.4-.5-.32-.99-.65-1.48-.98-.7-.47-1.39-.95-2.08-1.44-.42-.29-.85-.59-1.26-.89-1.05-.75-2.09-1.52-3.12-2.31-.3-.23-.6-.47-.9-.7-.81-.63-1.61-1.27-2.4-1.92-.35-.28-.69-.56-1.04-.85-.94-.79-1.87-1.58-2.78-2.39-.12-.1-.24-.2-.35-.3-1.03-.91-2.03-1.84-3.02-2.78-.29-.26-.57-.54-.85-.81-.81-.78-1.62-1.58-2.42-2.38-.2-.21-.4-.41-.6-.61-.97-1-1.92-2-2.85-3.02-.22-.24-.43-.47-.64-.71-.79-.87-1.56-1.75-2.33-2.65-.19-.22-.38-.44-.57-.67-.92-1.09-1.83-2.19-2.71-3.31-.12-.16-.24-.31-.36-.47-.81-1.03-1.6-2.08-2.38-3.14-.14-.18-.27-.36-.41-.55-.89-1.22-1.75-2.45-2.6-3.69-.02-.03-.04-.06-.06-.09-.85-1.26-1.68-2.54-2.48-3.82-.06-.1-.12-.19-.18-.28-1.69-2.71-3.29-5.48-4.78-8.3-.01-.03-.03-.07-.05-.1-.75-1.42-1.48-2.86-2.18-4.31,0-.02-.02-.04-.03-.06l-178.99-370.73c14.95,17.17,33.23,33.15,54.63,47.56,65.42,44.07,152.28,68.34,244.58,68.34s179.17-24.27,244.58-68.34c21.4-14.41,39.68-30.39,54.63-47.56Z" style="fill:url(#linear-gradient-6);"/><path d="M1067.76,1192.54l-49.7,102.95-46.13,95.55c-14.95,17.17-33.23,33.15-54.63,47.56-65.41,44.07-152.27,68.34-244.58,68.34s-179.16-24.27-244.58-68.34c-21.4-14.41-39.68-30.39-54.63-47.56l-46.13-95.55-49.7-102.95c-32.06-66.39-4.22-146.2,62.18-178.26,61.52-29.71,134.57-7.98,170.45,48.21,2.2,3.42,4.25,6.97,6.14,10.64.57,1.1,1.13,2.21,1.67,3.33l154.6,320.21,154.6-320.21c.54-1.12,1.1-2.23,1.67-3.33,1.9-3.68,3.94-7.23,6.14-10.65,35.89-56.18,108.93-77.91,170.45-48.2,66.4,32.06,94.24,111.87,62.18,178.26Z" style="fill:url(#linear-gradient-7);"/><path d="M2236.55,792.63c0,1.75-.04,3.5-.1,5.24-23.53-1-48.06,1.34-72.73,7.41-61.43,15.11-111.39,50.32-140.98,93.94-32.3-24.38-53.2-63.09-53.2-106.58,0-73.61,59.89-133.5,133.5-133.5s133.5,59.89,133.5,133.5Z" style="fill:url(#linear-gradient-8);"/><path d="M2236.46,797.87c-2.76,71.21-61.55,128.26-133.4,128.26-30.11,0-57.93-10.03-80.3-26.92,29.58-43.62,79.54-78.84,140.98-93.94,24.67-6.07,49.2-8.41,72.73-7.41Z" style="fill:url(#linear-gradient-9);"/></svg>